<mxfile host="Electron" modified="2024-04-02T13:18:49.828Z" agent="Mozilla/5.0 (Windows NT 10.0; Win64; x64) AppleWebKit/537.36 (KHTML, like Gecko) draw.io/24.1.0 Chrome/120.0.6099.109 Electron/28.1.0 Safari/537.36" etag="Nju_MmsJlRn7SBbQLnxI" version="24.1.0" type="device">
  <diagram name="Страница — 1" id="gsQrge1h8C73fE-jB0nL">
    <mxGraphModel dx="1961" dy="2839" grid="1" gridSize="10" guides="1" tooltips="1" connect="1" arrows="1" fold="1" page="1" pageScale="1" pageWidth="827" pageHeight="1169" math="0" shadow="0">
      <root>
        <mxCell id="0" />
        <mxCell id="1" parent="0" />
        <mxCell id="KuKDfXyXPY4Q61d1JDfj-1" value="&amp;lt;&amp;lt;Interface&amp;gt;&amp;gt;&lt;div&gt;DeviceFactory&lt;/div&gt;" style="swimlane;whiteSpace=wrap;html=1;startSize=30;" vertex="1" parent="1">
          <mxGeometry x="240" y="140" width="200" height="110" as="geometry">
            <mxRectangle x="220" y="370" width="120" height="40" as="alternateBounds" />
          </mxGeometry>
        </mxCell>
        <mxCell id="KuKDfXyXPY4Q61d1JDfj-2" value="+CreateLaptop()&lt;div&gt;+CreateNetbook()&lt;br&gt;+CreateEBook()&lt;br&gt;+&amp;nbsp;CreateSmartphone()&lt;/div&gt;" style="rounded=0;whiteSpace=wrap;html=1;" vertex="1" parent="KuKDfXyXPY4Q61d1JDfj-1">
          <mxGeometry y="30" width="200" height="80" as="geometry" />
        </mxCell>
        <mxCell id="KuKDfXyXPY4Q61d1JDfj-44" style="edgeStyle=orthogonalEdgeStyle;rounded=0;orthogonalLoop=1;jettySize=auto;html=1;entryX=0;entryY=0.5;entryDx=0;entryDy=0;" edge="1" parent="1" source="KuKDfXyXPY4Q61d1JDfj-3" target="KuKDfXyXPY4Q61d1JDfj-2">
          <mxGeometry relative="1" as="geometry" />
        </mxCell>
        <mxCell id="KuKDfXyXPY4Q61d1JDfj-3" value="Program" style="swimlane;whiteSpace=wrap;html=1;startSize=30;" vertex="1" parent="1">
          <mxGeometry x="-70" y="180" width="200" height="60" as="geometry">
            <mxRectangle x="220" y="370" width="120" height="40" as="alternateBounds" />
          </mxGeometry>
        </mxCell>
        <mxCell id="KuKDfXyXPY4Q61d1JDfj-4" value="+Main()" style="rounded=0;whiteSpace=wrap;html=1;" vertex="1" parent="KuKDfXyXPY4Q61d1JDfj-3">
          <mxGeometry y="30" width="200" height="40" as="geometry" />
        </mxCell>
        <mxCell id="KuKDfXyXPY4Q61d1JDfj-77" style="edgeStyle=orthogonalEdgeStyle;rounded=0;orthogonalLoop=1;jettySize=auto;html=1;entryX=0.5;entryY=0;entryDx=0;entryDy=0;endArrow=block;endFill=0;dashed=1;" edge="1" parent="1" source="KuKDfXyXPY4Q61d1JDfj-5" target="KuKDfXyXPY4Q61d1JDfj-18">
          <mxGeometry relative="1" as="geometry">
            <Array as="points">
              <mxPoint x="340" y="-30" />
              <mxPoint x="1270" y="-30" />
            </Array>
          </mxGeometry>
        </mxCell>
        <mxCell id="KuKDfXyXPY4Q61d1JDfj-78" style="edgeStyle=orthogonalEdgeStyle;rounded=0;orthogonalLoop=1;jettySize=auto;html=1;entryX=0.5;entryY=0;entryDx=0;entryDy=0;endArrow=block;endFill=0;dashed=1;" edge="1" parent="1" source="KuKDfXyXPY4Q61d1JDfj-5" target="KuKDfXyXPY4Q61d1JDfj-16">
          <mxGeometry relative="1" as="geometry">
            <Array as="points">
              <mxPoint x="340" y="-30" />
              <mxPoint x="1040" y="-30" />
            </Array>
          </mxGeometry>
        </mxCell>
        <mxCell id="KuKDfXyXPY4Q61d1JDfj-79" style="edgeStyle=orthogonalEdgeStyle;rounded=0;orthogonalLoop=1;jettySize=auto;html=1;entryX=0.5;entryY=0;entryDx=0;entryDy=0;endArrow=block;endFill=0;dashed=1;" edge="1" parent="1" source="KuKDfXyXPY4Q61d1JDfj-5" target="KuKDfXyXPY4Q61d1JDfj-14">
          <mxGeometry relative="1" as="geometry">
            <Array as="points">
              <mxPoint x="340" y="-30" />
              <mxPoint x="810" y="-30" />
            </Array>
          </mxGeometry>
        </mxCell>
        <mxCell id="KuKDfXyXPY4Q61d1JDfj-80" style="edgeStyle=orthogonalEdgeStyle;rounded=0;orthogonalLoop=1;jettySize=auto;html=1;entryX=0.5;entryY=0;entryDx=0;entryDy=0;exitX=0.5;exitY=0;exitDx=0;exitDy=0;endArrow=block;endFill=0;dashed=1;" edge="1" parent="1" source="KuKDfXyXPY4Q61d1JDfj-5" target="KuKDfXyXPY4Q61d1JDfj-12">
          <mxGeometry relative="1" as="geometry">
            <Array as="points">
              <mxPoint x="340" y="-30" />
              <mxPoint x="580" y="-30" />
            </Array>
          </mxGeometry>
        </mxCell>
        <mxCell id="KuKDfXyXPY4Q61d1JDfj-5" value="IproneFactory" style="swimlane;whiteSpace=wrap;html=1;" vertex="1" parent="1">
          <mxGeometry x="240" y="20" width="200" height="95" as="geometry" />
        </mxCell>
        <mxCell id="KuKDfXyXPY4Q61d1JDfj-6" value="+CreateLaptop()&lt;br&gt;+CreateNetbook()&lt;br&gt;+CreateEBook()&lt;br&gt;+CreateSmartphone()" style="rounded=0;whiteSpace=wrap;html=1;" vertex="1" parent="KuKDfXyXPY4Q61d1JDfj-5">
          <mxGeometry y="25" width="200" height="75" as="geometry" />
        </mxCell>
        <mxCell id="KuKDfXyXPY4Q61d1JDfj-7" value="KiaomiFactory" style="swimlane;whiteSpace=wrap;html=1;" vertex="1" parent="1">
          <mxGeometry x="240" y="280" width="200" height="95" as="geometry" />
        </mxCell>
        <mxCell id="KuKDfXyXPY4Q61d1JDfj-8" value="+CreateLaptop()&lt;br&gt;+CreateNetbook()&lt;br&gt;+CreateEBook()&lt;br&gt;+CreateSmartphone()" style="rounded=0;whiteSpace=wrap;html=1;" vertex="1" parent="KuKDfXyXPY4Q61d1JDfj-7">
          <mxGeometry y="25" width="200" height="75" as="geometry" />
        </mxCell>
        <mxCell id="KuKDfXyXPY4Q61d1JDfj-9" value="BalaxyFactory" style="swimlane;whiteSpace=wrap;html=1;startSize=23;" vertex="1" parent="1">
          <mxGeometry x="240" y="410" width="200" height="95" as="geometry" />
        </mxCell>
        <mxCell id="KuKDfXyXPY4Q61d1JDfj-10" value="+CreateLaptop()&lt;br&gt;+CreateNetbook()&lt;br&gt;+CreateEBook()&lt;br&gt;+CreateSmartphone()" style="rounded=0;whiteSpace=wrap;html=1;" vertex="1" parent="KuKDfXyXPY4Q61d1JDfj-9">
          <mxGeometry y="25" width="200" height="75" as="geometry" />
        </mxCell>
        <mxCell id="KuKDfXyXPY4Q61d1JDfj-12" value="IproneLaptop" style="swimlane;whiteSpace=wrap;html=1;" vertex="1" parent="1">
          <mxGeometry x="480" y="37.5" width="200" height="60" as="geometry" />
        </mxCell>
        <mxCell id="KuKDfXyXPY4Q61d1JDfj-58" style="edgeStyle=orthogonalEdgeStyle;rounded=0;orthogonalLoop=1;jettySize=auto;html=1;" edge="1" parent="KuKDfXyXPY4Q61d1JDfj-12" source="KuKDfXyXPY4Q61d1JDfj-13">
          <mxGeometry relative="1" as="geometry">
            <mxPoint x="10" y="122.5" as="targetPoint" />
          </mxGeometry>
        </mxCell>
        <mxCell id="KuKDfXyXPY4Q61d1JDfj-13" value="" style="rounded=0;whiteSpace=wrap;html=1;" vertex="1" parent="KuKDfXyXPY4Q61d1JDfj-12">
          <mxGeometry y="25" width="200" height="35" as="geometry" />
        </mxCell>
        <mxCell id="KuKDfXyXPY4Q61d1JDfj-14" value="IproneEBook" style="swimlane;whiteSpace=wrap;html=1;" vertex="1" parent="1">
          <mxGeometry x="710" y="37.5" width="200" height="60" as="geometry" />
        </mxCell>
        <mxCell id="KuKDfXyXPY4Q61d1JDfj-15" value="" style="rounded=0;whiteSpace=wrap;html=1;" vertex="1" parent="KuKDfXyXPY4Q61d1JDfj-14">
          <mxGeometry y="25" width="200" height="35" as="geometry" />
        </mxCell>
        <mxCell id="KuKDfXyXPY4Q61d1JDfj-16" value="IproneNetbook" style="swimlane;whiteSpace=wrap;html=1;" vertex="1" parent="1">
          <mxGeometry x="940" y="37.5" width="200" height="60" as="geometry" />
        </mxCell>
        <mxCell id="KuKDfXyXPY4Q61d1JDfj-17" value="" style="rounded=0;whiteSpace=wrap;html=1;" vertex="1" parent="KuKDfXyXPY4Q61d1JDfj-16">
          <mxGeometry y="25" width="200" height="35" as="geometry" />
        </mxCell>
        <mxCell id="KuKDfXyXPY4Q61d1JDfj-18" value="IproneSmartphone" style="swimlane;whiteSpace=wrap;html=1;" vertex="1" parent="1">
          <mxGeometry x="1170" y="37.5" width="200" height="60" as="geometry" />
        </mxCell>
        <mxCell id="KuKDfXyXPY4Q61d1JDfj-19" value="" style="rounded=0;whiteSpace=wrap;html=1;" vertex="1" parent="KuKDfXyXPY4Q61d1JDfj-18">
          <mxGeometry y="25" width="200" height="35" as="geometry" />
        </mxCell>
        <mxCell id="KuKDfXyXPY4Q61d1JDfj-57" style="edgeStyle=orthogonalEdgeStyle;rounded=0;orthogonalLoop=1;jettySize=auto;html=1;" edge="1" parent="1" source="KuKDfXyXPY4Q61d1JDfj-20">
          <mxGeometry relative="1" as="geometry">
            <mxPoint x="490" y="230" as="targetPoint" />
          </mxGeometry>
        </mxCell>
        <mxCell id="KuKDfXyXPY4Q61d1JDfj-20" value="KiaomiLaptop" style="swimlane;whiteSpace=wrap;html=1;" vertex="1" parent="1">
          <mxGeometry x="480" y="297.5" width="200" height="60" as="geometry" />
        </mxCell>
        <mxCell id="KuKDfXyXPY4Q61d1JDfj-21" value="" style="rounded=0;whiteSpace=wrap;html=1;" vertex="1" parent="KuKDfXyXPY4Q61d1JDfj-20">
          <mxGeometry y="25" width="200" height="35" as="geometry" />
        </mxCell>
        <mxCell id="KuKDfXyXPY4Q61d1JDfj-60" style="edgeStyle=orthogonalEdgeStyle;rounded=0;orthogonalLoop=1;jettySize=auto;html=1;" edge="1" parent="1" source="KuKDfXyXPY4Q61d1JDfj-22">
          <mxGeometry relative="1" as="geometry">
            <mxPoint x="720" y="230" as="targetPoint" />
          </mxGeometry>
        </mxCell>
        <mxCell id="KuKDfXyXPY4Q61d1JDfj-22" value="KiaomiEBook" style="swimlane;whiteSpace=wrap;html=1;" vertex="1" parent="1">
          <mxGeometry x="710" y="297.5" width="200" height="60" as="geometry" />
        </mxCell>
        <mxCell id="KuKDfXyXPY4Q61d1JDfj-23" value="" style="rounded=0;whiteSpace=wrap;html=1;" vertex="1" parent="KuKDfXyXPY4Q61d1JDfj-22">
          <mxGeometry y="25" width="200" height="35" as="geometry" />
        </mxCell>
        <mxCell id="KuKDfXyXPY4Q61d1JDfj-24" value="KiaomiNetbook" style="swimlane;whiteSpace=wrap;html=1;" vertex="1" parent="1">
          <mxGeometry x="940" y="297.5" width="200" height="60" as="geometry" />
        </mxCell>
        <mxCell id="KuKDfXyXPY4Q61d1JDfj-25" value="" style="rounded=0;whiteSpace=wrap;html=1;" vertex="1" parent="KuKDfXyXPY4Q61d1JDfj-24">
          <mxGeometry y="25" width="200" height="35" as="geometry" />
        </mxCell>
        <mxCell id="KuKDfXyXPY4Q61d1JDfj-26" value="KiaomiSmartphone" style="swimlane;whiteSpace=wrap;html=1;" vertex="1" parent="1">
          <mxGeometry x="1170" y="297.5" width="200" height="60" as="geometry" />
        </mxCell>
        <mxCell id="KuKDfXyXPY4Q61d1JDfj-27" value="" style="rounded=0;whiteSpace=wrap;html=1;" vertex="1" parent="KuKDfXyXPY4Q61d1JDfj-26">
          <mxGeometry y="25" width="200" height="35" as="geometry" />
        </mxCell>
        <mxCell id="KuKDfXyXPY4Q61d1JDfj-56" style="edgeStyle=orthogonalEdgeStyle;rounded=0;orthogonalLoop=1;jettySize=auto;html=1;entryX=0;entryY=0.75;entryDx=0;entryDy=0;" edge="1" parent="1" source="KuKDfXyXPY4Q61d1JDfj-28" target="KuKDfXyXPY4Q61d1JDfj-37">
          <mxGeometry relative="1" as="geometry">
            <Array as="points">
              <mxPoint x="460" y="458" />
              <mxPoint x="460" y="216" />
            </Array>
          </mxGeometry>
        </mxCell>
        <mxCell id="KuKDfXyXPY4Q61d1JDfj-28" value="BalaxyLaptop" style="swimlane;whiteSpace=wrap;html=1;" vertex="1" parent="1">
          <mxGeometry x="480" y="427.5" width="200" height="60" as="geometry" />
        </mxCell>
        <mxCell id="KuKDfXyXPY4Q61d1JDfj-29" value="" style="rounded=0;whiteSpace=wrap;html=1;" vertex="1" parent="KuKDfXyXPY4Q61d1JDfj-28">
          <mxGeometry y="25" width="200" height="35" as="geometry" />
        </mxCell>
        <mxCell id="KuKDfXyXPY4Q61d1JDfj-59" style="edgeStyle=orthogonalEdgeStyle;rounded=0;orthogonalLoop=1;jettySize=auto;html=1;entryX=0;entryY=0.75;entryDx=0;entryDy=0;" edge="1" parent="1" source="KuKDfXyXPY4Q61d1JDfj-30" target="KuKDfXyXPY4Q61d1JDfj-39">
          <mxGeometry relative="1" as="geometry">
            <Array as="points">
              <mxPoint x="690" y="458" />
              <mxPoint x="690" y="216" />
            </Array>
          </mxGeometry>
        </mxCell>
        <mxCell id="KuKDfXyXPY4Q61d1JDfj-30" value="BalaxyEBook" style="swimlane;whiteSpace=wrap;html=1;" vertex="1" parent="1">
          <mxGeometry x="710" y="427.5" width="200" height="60" as="geometry" />
        </mxCell>
        <mxCell id="KuKDfXyXPY4Q61d1JDfj-31" value="" style="rounded=0;whiteSpace=wrap;html=1;" vertex="1" parent="KuKDfXyXPY4Q61d1JDfj-30">
          <mxGeometry y="25" width="200" height="35" as="geometry" />
        </mxCell>
        <mxCell id="KuKDfXyXPY4Q61d1JDfj-62" style="edgeStyle=orthogonalEdgeStyle;rounded=0;orthogonalLoop=1;jettySize=auto;html=1;entryX=0;entryY=0.75;entryDx=0;entryDy=0;" edge="1" parent="1" source="KuKDfXyXPY4Q61d1JDfj-32" target="KuKDfXyXPY4Q61d1JDfj-41">
          <mxGeometry relative="1" as="geometry">
            <Array as="points">
              <mxPoint x="920" y="458" />
              <mxPoint x="920" y="216" />
            </Array>
          </mxGeometry>
        </mxCell>
        <mxCell id="KuKDfXyXPY4Q61d1JDfj-32" value="BalaxyNetbook" style="swimlane;whiteSpace=wrap;html=1;" vertex="1" parent="1">
          <mxGeometry x="940" y="427.5" width="200" height="60" as="geometry" />
        </mxCell>
        <mxCell id="KuKDfXyXPY4Q61d1JDfj-33" value="" style="rounded=0;whiteSpace=wrap;html=1;" vertex="1" parent="KuKDfXyXPY4Q61d1JDfj-32">
          <mxGeometry y="25" width="200" height="35" as="geometry" />
        </mxCell>
        <mxCell id="KuKDfXyXPY4Q61d1JDfj-67" style="edgeStyle=orthogonalEdgeStyle;rounded=0;orthogonalLoop=1;jettySize=auto;html=1;entryX=0;entryY=0.75;entryDx=0;entryDy=0;" edge="1" parent="1" source="KuKDfXyXPY4Q61d1JDfj-34" target="KuKDfXyXPY4Q61d1JDfj-43">
          <mxGeometry relative="1" as="geometry">
            <Array as="points">
              <mxPoint x="1150" y="458" />
              <mxPoint x="1150" y="216" />
            </Array>
          </mxGeometry>
        </mxCell>
        <mxCell id="KuKDfXyXPY4Q61d1JDfj-34" value="BalaxySmartphone" style="swimlane;whiteSpace=wrap;html=1;" vertex="1" parent="1">
          <mxGeometry x="1170" y="427.5" width="200" height="60" as="geometry" />
        </mxCell>
        <mxCell id="KuKDfXyXPY4Q61d1JDfj-35" value="" style="rounded=0;whiteSpace=wrap;html=1;" vertex="1" parent="KuKDfXyXPY4Q61d1JDfj-34">
          <mxGeometry y="25" width="200" height="35" as="geometry" />
        </mxCell>
        <mxCell id="KuKDfXyXPY4Q61d1JDfj-36" value="&amp;lt;&amp;lt;Interface&amp;gt;&amp;gt;Laptop" style="swimlane;whiteSpace=wrap;html=1;" vertex="1" parent="1">
          <mxGeometry x="480" y="165" width="200" height="60" as="geometry" />
        </mxCell>
        <mxCell id="KuKDfXyXPY4Q61d1JDfj-37" value="" style="rounded=0;whiteSpace=wrap;html=1;" vertex="1" parent="KuKDfXyXPY4Q61d1JDfj-36">
          <mxGeometry y="25" width="200" height="35" as="geometry" />
        </mxCell>
        <mxCell id="KuKDfXyXPY4Q61d1JDfj-38" value="&amp;lt;&amp;lt;Interface&amp;gt;&amp;gt;EBook" style="swimlane;whiteSpace=wrap;html=1;" vertex="1" parent="1">
          <mxGeometry x="710" y="165" width="200" height="60" as="geometry" />
        </mxCell>
        <mxCell id="KuKDfXyXPY4Q61d1JDfj-39" value="" style="rounded=0;whiteSpace=wrap;html=1;" vertex="1" parent="KuKDfXyXPY4Q61d1JDfj-38">
          <mxGeometry y="25" width="200" height="35" as="geometry" />
        </mxCell>
        <mxCell id="KuKDfXyXPY4Q61d1JDfj-40" value="&amp;lt;&amp;lt;Interface&amp;gt;&amp;gt;Netbook" style="swimlane;whiteSpace=wrap;html=1;" vertex="1" parent="1">
          <mxGeometry x="940" y="165" width="200" height="60" as="geometry" />
        </mxCell>
        <mxCell id="KuKDfXyXPY4Q61d1JDfj-41" value="" style="rounded=0;whiteSpace=wrap;html=1;" vertex="1" parent="KuKDfXyXPY4Q61d1JDfj-40">
          <mxGeometry y="25" width="200" height="35" as="geometry" />
        </mxCell>
        <mxCell id="KuKDfXyXPY4Q61d1JDfj-42" value="&amp;lt;&amp;lt;Interface&amp;gt;&amp;gt;Smartphone" style="swimlane;whiteSpace=wrap;html=1;" vertex="1" parent="1">
          <mxGeometry x="1170" y="165" width="200" height="60" as="geometry" />
        </mxCell>
        <mxCell id="KuKDfXyXPY4Q61d1JDfj-43" value="" style="rounded=0;whiteSpace=wrap;html=1;" vertex="1" parent="KuKDfXyXPY4Q61d1JDfj-42">
          <mxGeometry y="25" width="200" height="35" as="geometry" />
        </mxCell>
        <mxCell id="KuKDfXyXPY4Q61d1JDfj-50" style="edgeStyle=orthogonalEdgeStyle;rounded=0;orthogonalLoop=1;jettySize=auto;html=1;endArrow=block;endFill=0;dashed=1;entryX=0;entryY=0.25;entryDx=0;entryDy=0;" edge="1" parent="1" source="KuKDfXyXPY4Q61d1JDfj-10" target="KuKDfXyXPY4Q61d1JDfj-2">
          <mxGeometry relative="1" as="geometry">
            <mxPoint x="230" y="200" as="targetPoint" />
            <Array as="points">
              <mxPoint x="190" y="473" />
              <mxPoint x="190" y="200" />
              <mxPoint x="240" y="200" />
            </Array>
          </mxGeometry>
        </mxCell>
        <mxCell id="KuKDfXyXPY4Q61d1JDfj-51" style="edgeStyle=orthogonalEdgeStyle;rounded=0;orthogonalLoop=1;jettySize=auto;html=1;endArrow=block;endFill=0;dashed=1;exitX=0;exitY=0.5;exitDx=0;exitDy=0;" edge="1" parent="1" source="KuKDfXyXPY4Q61d1JDfj-8">
          <mxGeometry relative="1" as="geometry">
            <mxPoint x="250" y="483" as="sourcePoint" />
            <mxPoint x="240" y="190" as="targetPoint" />
            <Array as="points">
              <mxPoint x="240" y="340" />
              <mxPoint x="190" y="340" />
              <mxPoint x="190" y="200" />
            </Array>
          </mxGeometry>
        </mxCell>
        <mxCell id="KuKDfXyXPY4Q61d1JDfj-55" style="edgeStyle=orthogonalEdgeStyle;rounded=0;orthogonalLoop=1;jettySize=auto;html=1;dashed=1;endArrow=blockThin;endFill=0;exitX=-0.002;exitY=0.398;exitDx=0;exitDy=0;exitPerimeter=0;" edge="1" parent="1" source="KuKDfXyXPY4Q61d1JDfj-6">
          <mxGeometry relative="1" as="geometry">
            <mxPoint x="240" y="190" as="targetPoint" />
            <Array as="points">
              <mxPoint x="190" y="75" />
              <mxPoint x="190" y="200" />
            </Array>
          </mxGeometry>
        </mxCell>
        <mxCell id="KuKDfXyXPY4Q61d1JDfj-61" style="edgeStyle=orthogonalEdgeStyle;rounded=0;orthogonalLoop=1;jettySize=auto;html=1;entryX=0.066;entryY=0.01;entryDx=0;entryDy=0;entryPerimeter=0;" edge="1" parent="1" source="KuKDfXyXPY4Q61d1JDfj-15" target="KuKDfXyXPY4Q61d1JDfj-38">
          <mxGeometry relative="1" as="geometry" />
        </mxCell>
        <mxCell id="KuKDfXyXPY4Q61d1JDfj-63" style="edgeStyle=orthogonalEdgeStyle;rounded=0;orthogonalLoop=1;jettySize=auto;html=1;entryX=0.052;entryY=1.016;entryDx=0;entryDy=0;entryPerimeter=0;" edge="1" parent="1" source="KuKDfXyXPY4Q61d1JDfj-24" target="KuKDfXyXPY4Q61d1JDfj-41">
          <mxGeometry relative="1" as="geometry" />
        </mxCell>
        <mxCell id="KuKDfXyXPY4Q61d1JDfj-64" style="edgeStyle=orthogonalEdgeStyle;rounded=0;orthogonalLoop=1;jettySize=auto;html=1;entryX=0.059;entryY=-0.062;entryDx=0;entryDy=0;entryPerimeter=0;" edge="1" parent="1" source="KuKDfXyXPY4Q61d1JDfj-17" target="KuKDfXyXPY4Q61d1JDfj-40">
          <mxGeometry relative="1" as="geometry" />
        </mxCell>
        <mxCell id="KuKDfXyXPY4Q61d1JDfj-66" style="edgeStyle=orthogonalEdgeStyle;rounded=0;orthogonalLoop=1;jettySize=auto;html=1;entryX=0.05;entryY=1.029;entryDx=0;entryDy=0;entryPerimeter=0;" edge="1" parent="1" source="KuKDfXyXPY4Q61d1JDfj-26" target="KuKDfXyXPY4Q61d1JDfj-43">
          <mxGeometry relative="1" as="geometry" />
        </mxCell>
        <mxCell id="KuKDfXyXPY4Q61d1JDfj-81" style="edgeStyle=orthogonalEdgeStyle;rounded=0;orthogonalLoop=1;jettySize=auto;html=1;entryX=0.5;entryY=1;entryDx=0;entryDy=0;endArrow=blockThin;endFill=0;dashed=1;" edge="1" parent="1" source="KuKDfXyXPY4Q61d1JDfj-10" target="KuKDfXyXPY4Q61d1JDfj-34">
          <mxGeometry relative="1" as="geometry">
            <Array as="points">
              <mxPoint x="340" y="550" />
              <mxPoint x="1270" y="550" />
            </Array>
          </mxGeometry>
        </mxCell>
        <mxCell id="KuKDfXyXPY4Q61d1JDfj-82" style="edgeStyle=orthogonalEdgeStyle;rounded=0;orthogonalLoop=1;jettySize=auto;html=1;entryX=0.5;entryY=1;entryDx=0;entryDy=0;endArrow=blockThin;endFill=0;dashed=1;" edge="1" parent="1" source="KuKDfXyXPY4Q61d1JDfj-10" target="KuKDfXyXPY4Q61d1JDfj-33">
          <mxGeometry relative="1" as="geometry">
            <Array as="points">
              <mxPoint x="340" y="550" />
              <mxPoint x="1040" y="550" />
            </Array>
          </mxGeometry>
        </mxCell>
        <mxCell id="KuKDfXyXPY4Q61d1JDfj-83" style="edgeStyle=orthogonalEdgeStyle;rounded=0;orthogonalLoop=1;jettySize=auto;html=1;entryX=0.5;entryY=1;entryDx=0;entryDy=0;endArrow=blockThin;endFill=0;dashed=1;" edge="1" parent="1" source="KuKDfXyXPY4Q61d1JDfj-10" target="KuKDfXyXPY4Q61d1JDfj-30">
          <mxGeometry relative="1" as="geometry">
            <Array as="points">
              <mxPoint x="340" y="550" />
              <mxPoint x="810" y="550" />
            </Array>
          </mxGeometry>
        </mxCell>
        <mxCell id="KuKDfXyXPY4Q61d1JDfj-84" style="edgeStyle=orthogonalEdgeStyle;rounded=0;orthogonalLoop=1;jettySize=auto;html=1;entryX=0.5;entryY=1;entryDx=0;entryDy=0;endArrow=blockThin;endFill=0;dashed=1;" edge="1" parent="1" source="KuKDfXyXPY4Q61d1JDfj-10" target="KuKDfXyXPY4Q61d1JDfj-29">
          <mxGeometry relative="1" as="geometry">
            <Array as="points">
              <mxPoint x="340" y="550" />
              <mxPoint x="580" y="550" />
            </Array>
          </mxGeometry>
        </mxCell>
        <mxCell id="KuKDfXyXPY4Q61d1JDfj-85" style="edgeStyle=orthogonalEdgeStyle;rounded=0;orthogonalLoop=1;jettySize=auto;html=1;entryX=0.5;entryY=1;entryDx=0;entryDy=0;endArrow=block;endFill=0;dashed=1;" edge="1" parent="1" source="KuKDfXyXPY4Q61d1JDfj-8" target="KuKDfXyXPY4Q61d1JDfj-20">
          <mxGeometry relative="1" as="geometry">
            <Array as="points">
              <mxPoint x="340" y="390" />
              <mxPoint x="580" y="390" />
            </Array>
          </mxGeometry>
        </mxCell>
        <mxCell id="KuKDfXyXPY4Q61d1JDfj-86" style="edgeStyle=orthogonalEdgeStyle;rounded=0;orthogonalLoop=1;jettySize=auto;html=1;entryX=0.5;entryY=1;entryDx=0;entryDy=0;endArrow=block;endFill=0;dashed=1;" edge="1" parent="1" source="KuKDfXyXPY4Q61d1JDfj-8" target="KuKDfXyXPY4Q61d1JDfj-23">
          <mxGeometry relative="1" as="geometry">
            <Array as="points">
              <mxPoint x="340" y="390" />
              <mxPoint x="810" y="390" />
            </Array>
          </mxGeometry>
        </mxCell>
        <mxCell id="KuKDfXyXPY4Q61d1JDfj-87" style="edgeStyle=orthogonalEdgeStyle;rounded=0;orthogonalLoop=1;jettySize=auto;html=1;entryX=0.5;entryY=1;entryDx=0;entryDy=0;endArrow=block;endFill=0;dashed=1;" edge="1" parent="1" source="KuKDfXyXPY4Q61d1JDfj-8" target="KuKDfXyXPY4Q61d1JDfj-24">
          <mxGeometry relative="1" as="geometry">
            <Array as="points">
              <mxPoint x="340" y="390" />
              <mxPoint x="1040" y="390" />
            </Array>
          </mxGeometry>
        </mxCell>
        <mxCell id="KuKDfXyXPY4Q61d1JDfj-88" style="edgeStyle=orthogonalEdgeStyle;rounded=0;orthogonalLoop=1;jettySize=auto;html=1;entryX=0.5;entryY=1;entryDx=0;entryDy=0;endArrow=block;endFill=0;dashed=1;" edge="1" parent="1" source="KuKDfXyXPY4Q61d1JDfj-8" target="KuKDfXyXPY4Q61d1JDfj-26">
          <mxGeometry relative="1" as="geometry">
            <Array as="points">
              <mxPoint x="340" y="390" />
              <mxPoint x="1270" y="390" />
            </Array>
          </mxGeometry>
        </mxCell>
      </root>
    </mxGraphModel>
  </diagram>
</mxfile>
